<svg height="512" fill="#fff" viewBox="0 0 59 55" width="512" xmlns="http://www.w3.org/2000/svg"><g id="020---Charging"><path id="Shape" d="m20 43h2c1.1045695 0 2-.8954305 2-2v-4h-6v4c0 1.1045695.8954305 2 2 2z"/><path id="Shape" d="m42 43h2c1.1045695 0 2-.8954305 2-2v-4h-6v4c0 1.1045695.8954305 2 2 2z"/><path id="Shape" d="m34.15 1.08c-.05 0-.1-.01-.16-.01-1.1045695-.03865992-2.03134.82543051-2.07 1.93-.0386599 1.10456949.8254305 2.03134005 1.93 2.07 12.4934575.98423541 21.899418 11.789299 21.152802 24.2992056-.7466161 12.5099066-11.3709653 22.1195214-23.892802 21.6107944-12.29-.46-21.85-10.81-22.1-23.06-.99950627.1082105-2.00615683.1349653-3.01.08-1.1 0-1-.178-1 0 .00310949 14.6315373 11.6600537 26.5981707 26.2864814 26.9848324 14.6264276.3866617 26.8993441-10.9473661 27.6755025-25.5583028s-10.2269085-27.18142535-24.8119839-28.3465296z"/><path id="Shape" d="m1 21c0 2.7614237 2.23857625 5 5 5h2c1.32608245 0 2.597852-.5267842 3.5355339-1.4644661s1.4644661-2.2094515 1.4644661-3.5355339v-5h-12z"/><rect id="Rectangle-path" height="4" rx="1" width="14" y="10"/><path id="Shape" d="m5 2c0-1.1045695-.8954305-2-2-2s-2 .8954305-2 2v6h4z"/><path id="Shape" d="m13 2c0-1.1045695-.8954305-2-2-2s-2 .8954305-2 2v6h4z"/><path id="Shape" d="m43 28h6v-1c0-1.1045695-.8954305-2-2-2h-30c-1.1045695 0-2 .8954305-2 2v1h6c.5522847 0 1 .4477153 1 1s-.4477153 1-1 1h-6v4c0 1.1045695.8954305 2 2 2h30c1.1045695 0 2-.8954305 2-2v-4h-6c-.5522847 0-1-.4477153-1-1s.4477153-1 1-1zm-8 5h-6c-.5522847 0-1-.4477153-1-1s.4477153-1 1-1h6c.5522847 0 1 .4477153 1 1s-.4477153 1-1 1z"/><path id="Shape" d="m38.338 11h-12.759c-2.1323418.0000677-4.0300036 1.3524428-4.726 3.368l-2.98 8.632h28.171l-2.98-8.632c-.6959964-2.0155572-2.5936582-3.3679323-4.726-3.368zm-14.338 6c-.4043959-.0000863-.7689341-.2437275-.923678-.6173454-.1547439-.373618-.0692299-.8036603.216678-1.0896546l2-2c.3923789-.3789722 1.0160848-.3735524 1.4018186.0121814s.3911536 1.0094397.0121814 1.4018186c-2.18 2.18-2.168 2.293-2.707 2.293zm8.707-2.293-6 6c-.2510745.2599566-.6228779.3642126-.9725073.2726972-.3496295-.0915155-.6226744-.3645604-.7141899-.7141899-.0915154-.3496294.0127406-.7214328.2726972-.9725073l6-6c.3923789-.3789722 1.0160848-.3735524 1.4018186.0121814s.3911536 1.0094397.0121814 1.4018186z"/></g></svg>