<svg id="Capa_1" fill="#fff" enable-background="new 0 0 202.529 202.529" height="512" viewBox="0 0 202.529 202.529" width="512" xmlns="http://www.w3.org/2000/svg"><path d="m185.069 24.443h-21.548c-.042.119-.105.223-.15.339-.988 2.507-2.94 4.557-5.388 5.678-.192.087-.384.168-.583.241-.087.035-.175.077-.265.108v7.602c0 1.931-1.564 3.492-3.492 3.492s-3.492-1.561-3.492-3.492v-7.598c-.091-.031-.175-.077-.265-.112-.199-.077-.388-.154-.58-.241-2.434-1.114-4.41-3.181-5.388-5.678-.049-.115-.108-.223-.15-.339h-15.165c-.042.119-.105.223-.15.339-.999 2.5-2.94 4.557-5.388 5.678-.192.087-.384.168-.583.241-.087.035-.175.077-.265.108v7.602c0 1.931-1.564 3.492-3.492 3.492s-3.492-1.561-3.492-3.492v-7.598c-.091-.031-.175-.077-.265-.112-.199-.077-.388-.154-.58-.241-2.434-1.114-4.41-3.181-5.388-5.678-.049-.115-.108-.223-.15-.339h-15.166c-.042.119-.105.223-.15.339-.077.196-.164.381-.251.569-1.055 2.252-2.874 4.072-5.137 5.109-.192.087-.384.168-.583.241-.087.035-.175.077-.265.108v7.602c0 1.931-1.564 3.492-3.492 3.492s-3.492-1.561-3.492-3.492v-7.598c-.091-.031-.175-.077-.265-.112-2.769-1.076-5.112-3.415-6.121-6.257h-15.167c-.042.119-.105.223-.15.339-1.002 2.504-2.937 4.553-5.388 5.678-.192.087-.384.168-.583.241-.087.035-.175.077-.265.108v7.602c0 1.931-1.564 3.492-3.492 3.492s-3.492-1.561-3.492-3.492v-7.598c-.091-.031-.175-.077-.265-.112-.199-.077-.388-.154-.58-.241-2.385-1.089-5.157-3.579-6.139-6.017 0 0-1.404 0-1.889 0-1.117 0-2.238 0-3.356 0-2.741 0-5.482 0-8.22 0-.436 0-7.487 0-7.487 0v111.74h6.984 153.643 6.984zm-90.788 101.265c-7.703 0-13.968-6.264-13.968-13.968 0-3.736 1.495-7.116 3.893-9.624l-13.231-19.16c-1.456.517-3 .849-4.63.849-2.2 0-4.26-.559-6.111-1.47l-10.838 13.891c1.84 2.367 2.986 5.304 2.986 8.531 0 7.703-6.264 13.967-13.968 13.967s-13.968-6.264-13.968-13.968 6.264-13.968 13.968-13.968c1.948 0 3.799.405 5.486 1.128l11.006-14.107c-1.585-2.263-2.532-5.004-2.532-7.972 0-7.703 6.264-13.968 13.968-13.968s13.968 6.265 13.968 13.969c0 3.544-1.369 6.746-3.548 9.208l13.405 19.414c1.309-.405 2.671-.688 4.11-.688 7.703 0 13.968 6.264 13.968 13.968s-6.265 13.968-13.964 13.968zm24.443-69.838h13.967c1.928 0 3.492 1.561 3.492 3.492s-1.564 3.492-3.492 3.492h-13.967c-1.928 0-3.492-1.561-3.492-3.492s1.564-3.492 3.492-3.492zm0 17.459h38.411c1.928 0 3.492 1.561 3.492 3.492s-1.564 3.492-3.492 3.492h-38.411c-1.928 0-3.492-1.561-3.492-3.492s1.564-3.492 3.492-3.492zm38.41 41.903h-38.411c-1.928 0-3.492-1.561-3.492-3.492s1.564-3.492 3.492-3.492h38.411c1.928 0 3.492 1.561 3.492 3.492s-1.564 3.492-3.492 3.492zm17.46 0h-6.984c-1.928 0-3.492-1.561-3.492-3.492s1.564-3.492 3.492-3.492h6.984c1.928 0 3.492 1.561 3.492 3.492s-1.565 3.492-3.492 3.492zm0-17.459h-55.87c-1.928 0-3.492-1.561-3.492-3.492s1.564-3.492 3.492-3.492h55.87c1.928 0 3.492 1.561 3.492 3.492s-1.565 3.492-3.492 3.492zm0-17.46h-6.984c-1.928 0-3.492-1.561-3.492-3.492s1.564-3.492 3.492-3.492h6.984c1.928 0 3.492 1.561 3.492 3.492s-1.565 3.492-3.492 3.492z"/><path d="m153.643 24.443c1.924 0 3.492-1.564 3.492-3.492v-13.967-3.492c0-1.928-1.568-3.492-3.492-3.492s-3.492 1.564-3.492 3.492v3.492 13.968c0 1.927 1.568 3.491 3.492 3.491z"/><path d="m27.935 150.151h69.838v17.812c-7.958 1.624-13.968 8.674-13.968 17.107 0 9.627 7.832 17.459 17.459 17.459s17.459-7.832 17.459-17.459c0-8.429-6.01-15.483-13.968-17.107v-17.812h69.838v-6.984h-146.658zm83.805 34.918c0 5.776-4.7 10.476-10.476 10.476s-10.476-4.7-10.476-10.476 4.7-10.476 10.476-10.476c5.776.001 10.476 4.701 10.476 10.476z"/><circle cx="38.411" cy="104.756" r="6.984"/><path d="m10.476 139.675v-118.724c0-1.931 1.564-3.492 3.492-3.492h24.443v-6.984h-34.919v139.675h17.459v-6.984h-6.984c-1.927.001-3.491-1.56-3.491-3.491z"/><circle cx="66.346" cy="69.838" r="6.984"/><circle cx="94.281" cy="111.74" r="6.984"/><path d="m129.199 10.476h13.968v6.984h-13.968z"/><path d="m83.805 24.443c1.928 0 3.492-1.564 3.492-3.492v-13.967-3.492c0-1.928-1.564-3.492-3.492-3.492-1.924 0-3.492 1.564-3.492 3.492v3.492 13.968c0 1.927 1.568 3.491 3.492 3.491z"/><path d="m59.362 10.476h13.968v6.984h-13.968z"/><path d="m164.118 10.476v6.984h24.443c1.928 0 3.492 1.561 3.492 3.492v118.724c0 1.931-1.564 3.492-3.492 3.492h-6.984v6.984h17.459v-139.676z"/><path d="m48.886 24.443c1.928 0 3.492-1.564 3.492-3.492v-13.967-3.492c0-1.928-1.564-3.492-3.492-3.492-1.924 0-3.492 1.564-3.492 3.492v3.492 13.968c0 1.927 1.568 3.491 3.492 3.491z"/><path d="m94.281 10.476h13.968v6.984h-13.968z"/><path d="m118.724 24.443c1.924 0 3.492-1.564 3.492-3.492v-13.967-3.492c0-1.928-1.568-3.492-3.492-3.492s-3.492 1.564-3.492 3.492v3.492 13.968c0 1.927 1.568 3.491 3.492 3.491z"/></svg>