<svg height="480pt" fill="#fff" viewBox="0 0 480 480" width="480pt" xmlns="http://www.w3.org/2000/svg"><path d="m304 273.320312 72 13.09375v-15.839843c0-5.03125-.65625-9.910157-1.894531-14.566407h-70.105469zm0 0"/><path d="m427.710938 152.96875c2.730468-2.730469 4.289062-6.488281 4.289062-10.34375 0-8.066406-6.558594-14.625-14.632812-14.625-3.902344 0-7.582032 1.519531-10.34375 4.28125l-68.671876 68.679688c10.289063 2.6875 19.585938 7.503906 27.433594 13.941406zm0 0"/><path d="m398.878906 406.375-3.519531 17.625h36.640625v-22.238281c0-44.355469-4.527344-88.777344-13.367188-132.273438-8.792968 1.265625-17.679687 2.023438-26.632812 2.3125v18.351563c8.105469 3.847656 13.566406 12.136718 13.566406 21.664062l2.433594 79.945313c0 6.519531-3.742188 12.015625-9.121094 14.613281zm0 0"/><path d="m439.023438 164.28125-62.121094 62.125c6.609375 8.523438 11.304687 18.53125 13.546875 29.433594 28.496093-.800782 56.230469-6.832032 82.511719-18.097656l5.910156-2.535157-14.871094-74.40625c-2.136719-10.6875-8.472656-19.601562-16.976562-25.464843.585937 2.34375.976562 4.761718.976562 7.289062 0 8.191406-3.183594 15.871094-8.976562 21.65625zm0 0"/><path d="m408 16c-17.648438 0-32 14.351562-32 32h64c0-17.648438-14.351562-32-32-32zm0 0"/><path d="m408 112c17.648438 0 32-14.351562 32-32v-16h-64v16c0 17.648438 14.351562 32 32 32zm0 0"/><path d="m207.953125 139.585938 19.207031 43.214843 18.847656 3.015625-27.863281-62.695312 39.183594-63.296875c16.984375-27.441407 46.398437-43.824219 78.671875-43.824219v-16c-37.855469 0-72.351562 19.214844-92.28125 51.40625l-69.519531 112.296875 11.855469 11.234375zm0 0"/><path d="m109.257812 153.9375 29.40625 22.0625h25.257813l-118.914063-112.65625c-8.625-8.175781-18.351562-13.121094-29.007812-14.742188v17.703126c5.625 1.96875 10.742188 5.128906 15.03125 9.414062zm0 0"/><path d="m389.566406 312.054688c0-4.214844-2.855468-7.535157-6.789062-8.152344l-94.777344-17.222656v-46.679688h79.007812c-8.359374-12.878906-21.9375-22.136719-38.160156-24.726562l-145.480468-23.273438h-39.558594c-.847656 23.585938-5.464844 46.640625-13.761719 68.742188 41.21875 11.410156 74.128906 42.875 87.464844 83.257812h173.03125zm0 0"/><path d="m84.6875 152h-24.6875c-6.617188 0-12 5.382812-12 12s5.382812 12 12 12h52.078125l-13.734375-10.34375zm0 0"/><path d="m438.121094 449.878906-21.082032 10.535156c-.640624.320313-1.039062.96875-1.039062 1.691407v1.894531h64v-24h-33.199219c-1.535156 4.207031-4.503906 7.792969-8.679687 9.878906zm0 0"/><path d="m479.273438 252.449219c-14.578126 6.246093-29.578126 10.976562-44.882813 14.238281 8.992187 44.410156 13.609375 89.777344 13.609375 135.074219v22.238281h32v-171.863281zm0 0"/><path d="m391.777344 440c-1.609375 4.007812-4.5625 7.328125-8.511719 9.3125l-22.21875 11.113281c-.640625.316407-1.039063.964844-1.039063 1.6875-.007812 1.039063.839844 1.886719 1.878907 1.886719h38.113281v-1.886719c0-6.816406 3.785156-12.9375 9.878906-15.992187l12.234375-6.121094zm0 0"/><path d="m32 164c0-15.441406 12.558594-28 28-28h8.6875l-48.96875-48.96875c-1.132812-1.136719-2.398438-2.09375-3.710938-2.976562v83.945312h16.40625c-.199218-1.320312-.414062-2.632812-.414062-4zm0 0"/><path d="m114.175781 257.441406c8.167969-21.007812 12.753907-42.960937 13.632813-65.441406h-67.808594c-7.601562 0-14.480469-3.0625-19.535156-8h-24.464844v100.097656c22.558594-18.027344 50.839844-28.097656 80-28.097656 6.183594 0 12.222656.59375 18.175781 1.441406zm0 0"/><path d="m392 392-.976562-32h-169.359376c1.488282 7.785156 2.335938 15.792969 2.335938 24v8zm0 0"/><path d="m96 360c-13.230469 0-24 10.769531-24 24s10.769531 24 24 24 24-10.769531 24-24-10.769531-24-24-24zm8 32h-16v-16h16zm0 0"/><path d="m96 288c-52.9375 0-96 43.0625-96 96s43.0625 96 96 96 96-43.0625 96-96-43.0625-96-96-96zm0 136c-22.054688 0-40-17.945312-40-40s17.945312-40 40-40 40 17.945312 40 40-17.945312 40-40 40zm0 0"/></svg>