<svg height="512pt" fill="#fff" viewBox="-64 0 512 512.11193" width="512pt" xmlns="http://www.w3.org/2000/svg"><path d="m192.054688 155.539062c2.476562 0 4.945312.25 7.371093.75l1.773438-1.023437v-54.117187c-6.078125-.621094-12.207031-.621094-18.285157 0v54.117187l1.765626 1.023437c2.425781-.5 4.898437-.75 7.375-.75zm0 0"/><path d="m108.78125 154.570312 46.703125 26.980469 2.085937-1.195312c1.535157-4.480469 3.933594-8.617188 7.058594-12.179688v-2.359375l-46.683594-27.027344c-3.574218 4.941407-6.644531 10.230469-9.164062 15.78125zm0 0"/><path d="m164.628906 144.679688v-39.78125c-12.75 4.058593-24.453125 10.867187-34.277344 19.949218zm0 0"/><path d="m384.054688 192.113281c.042968-84.132812-54.691407-158.496093-135.035157-183.453125-80.347656-24.960937-167.582031 5.292969-215.21875 74.640625-47.640625 69.34375-44.582031 161.628907 7.542969 227.667969h65.832031c-51.808593-36.925781-73.804687-103.101562-54.421875-163.695312 19.386719-60.59375 75.710938-101.710938 139.328125-101.710938 63.621094 0 119.945313 41.117188 139.332031 101.710938 19.382813 60.59375-2.617187 126.769531-54.421874 163.695312h65.828124c26.691407-33.871094 41.214844-75.734375 41.234376-118.855469zm-267.546876-139.722656c-20.992187 10.957031-39.476562 26.15625-54.28125 44.636719-3.027343 4.039062-8.757812 4.855468-12.800781 1.828125-4.039062-3.03125-4.855469-8.761719-1.828125-12.800781 16.378906-20.582032 36.871094-37.515626 60.171875-49.71875 2.875-1.621094 6.398438-1.566407 9.21875.144531 2.824219 1.707031 4.507813 4.804687 4.40625 8.101562-.101562 3.300781-1.972656 6.285157-4.894531 7.816407zm29.835938-15.707031c-5.050781 0-9.144531-4.09375-9.144531-9.144532 0-5.046874 4.09375-9.140624 9.144531-9.140624 5.046875 0 9.140625 4.09375 9.140625 9.140624 0 5.050782-4.09375 9.144532-9.140625 9.144532zm0 0"/><path d="m192.054688 228.683594c-2.472657.003906-4.941407-.25-7.367188-.75l-1.773438 1.023437v54.117188c6.078126.621093 12.207032.621093 18.285157 0v-54.117188l-1.765625-1.023437c-2.425782.5-4.898438.75-7.378906.75zm0 0"/><path d="m155.484375 202.671875-46.730469 26.980469c2.515625 5.554687 5.578125 10.839844 9.144532 15.78125l46.730468-27.027344v-2.359375c-3.113281-3.5625-5.503906-7.699219-7.03125-12.175781zm0 0"/><path d="m210.34375 192.113281c0 10.097657-8.1875 18.285157-18.289062 18.285157-10.097657 0-18.285157-8.1875-18.285157-18.285157 0-10.101562 8.1875-18.285156 18.285157-18.285156 10.101562 0 18.289062 8.183594 18.289062 18.285156zm0 0"/><path d="m102.859375 172.261719c-2.976563 13.066406-2.976563 26.632812 0 39.699219l34.339844-19.847657zm0 0"/><path d="m164.628906 279.324219v-39.777344l-34.277344 19.828125c9.824219 9.082031 21.527344 15.890625 34.277344 19.949219zm0 0"/><path d="m265.199219 484.683594h-263.84375c4.15625 16.097656 18.648437 27.367187 35.273437 27.429687h310.855469c16.625-.0625 31.117187-11.332031 35.273437-27.429687h-80.988281c-5.046875 0-9.140625-4.09375-9.140625-9.144532 0-5.046874 4.09375-9.140624 9.140625-9.140624h82.285157v-18.285157h-384.0000005v18.285157h265.1445315c5.050781 0 9.144531 4.09375 9.144531 9.140624 0 5.050782-4.09375 9.144532-9.144531 9.144532zm0 0"/><path d="m.0546875 411.539062h384.0000005v18.289063h-384.0000005zm0 0"/><path d="m192.054688 64.113281c-61.394532-.023437-114.152344 43.566407-125.710938 103.867188-11.554688 60.296875 21.34375 120.308593 78.398438 142.988281h94.628906c57.054687-22.679688 89.953125-82.691406 78.398437-142.988281-11.558593-60.300781-64.316406-103.890625-125.714843-103.867188zm102.730468 166.214844v.054687c-4.363281 11.730469-10.699218 22.625-18.734375 32.21875-.449219.644532-.980469 1.230469-1.582031 1.738282-16.582031 18.941406-39.183594 31.589844-64 35.824218h-.089844c-12.09375 2.195313-24.480468 2.195313-36.570312 0h-.09375c-24.816406-4.234374-47.414063-16.882812-64-35.824218-.597656-.507813-1.128906-1.09375-1.582032-1.738282-8.035156-9.59375-14.371093-20.488281-18.734374-32.21875v-.054687c-.136719-.238281-.136719-.5-.253907-.75-8.980469-24.183594-8.980469-50.785156 0-74.96875.117188-.25.117188-.511719.253907-.75 13.699218-36.601563 45.800781-63.171875 84.316406-69.789063h.09375c12.089844-2.195312 24.476562-2.195312 36.570312 0h.089844c38.515625 6.617188 70.621094 33.1875 84.316406 69.789063.136719.238281.136719.5.257813.75 8.980469 24.183594 8.980469 50.785156 0 74.96875-.121094.25-.121094.511719-.257813.75zm0 0"/><path d="m219.484375 104.898438v39.78125l34.277344-19.832032c-9.828125-9.082031-21.527344-15.890625-34.277344-19.949218zm0 0"/><path d="m246.914062 192.113281 34.375 19.847657c2.976563-13.066407 2.976563-26.632813 0-39.699219zm0 0"/><path d="m73.199219 374.96875h-73.1445315v18.285156h384.0000005v-18.285156h-274.285157c-5.046875 0-9.140625-4.09375-9.140625-9.140625 0-5.050781 4.09375-9.144531 9.140625-9.144531h272.988281c-4.15625-16.097656-18.648437-27.367188-35.273437-27.429688h-310.855469c-16.625.0625-31.117187 11.332032-35.273437 27.429688h71.84375c5.050781 0 9.144531 4.09375 9.144531 9.144531 0 5.046875-4.09375 9.140625-9.144531 9.140625zm0 0"/><path d="m219.484375 279.324219c12.75-4.058594 24.449219-10.867188 34.277344-19.949219l-34.277344-19.828125zm0 0"/><path d="m226.515625 203.871094c-1.53125 4.476562-3.917969 8.613281-7.03125 12.175781v2.359375l46.683594 27.027344c3.566406-4.941406 6.628906-10.226563 9.144531-15.78125l-46.683594-26.980469zm0 0"/><path d="m228.628906 181.550781 46.726563-26.980469c-2.511719-5.550781-5.574219-10.839843-9.140625-15.78125l-46.730469 27.027344v2.359375c3.113281 3.5625 5.5 7.699219 7.03125 12.179688zm0 0"/></svg>